<?xml version="1.0" standalone="no"?>
<!DOCTYPE svg PUBLIC "-//W3C//DTD SVG 20010904//EN"
 "http://www.w3.org/TR/2001/REC-SVG-20010904/DTD/svg10.dtd">
<svg version="1.0" xmlns="http://www.w3.org/2000/svg"
 width="700.000000pt" height="700.000000pt" viewBox="0 0 700.000000 700.000000"
 preserveAspectRatio="xMidYMid meet">
<metadata>
Created by potrace 1.14, written by Peter Selinger 2001-2017
</metadata>
<g transform="translate(0.000000,700.000000) scale(0.100000,-0.100000)"
fill="#000000" stroke="none">
<path d="M476 5418 c-90 -19 -178 -103 -200 -191 -11 -45 -8 -3457 3 -3495 24
-82 91 -149 176 -176 46 -15 314 -16 3065 -14 l3015 3 49 25 c27 14 64 42 82
64 70 82 65 -52 65 1848 0 942 -2 1723 -5 1734 -16 75 -80 152 -156 187 l-45
21 -3006 1 c-1654 0 -3023 -3 -3043 -7z m2204 -763 c36 -9 70 -18 75 -19 6 -1
37 -12 70 -26 187 -75 321 -193 396 -350 31 -64 67 -209 64 -258 l-1 -26 -228
0 c-125 -1 -231 1 -236 4 -4 3 -11 21 -15 40 -26 121 -123 205 -275 239 -52
12 -202 7 -266 -8 -72 -17 -153 -68 -186 -118 -60 -89 -52 -202 19 -275 32
-33 136 -95 177 -105 552 -141 528 -134 651 -194 269 -130 399 -333 389 -604
-4 -124 -21 -192 -70 -286 -40 -76 -114 -162 -182 -212 -88 -65 -247 -133
-352 -151 -14 -2 -41 -7 -60 -10 -74 -12 -139 -17 -245 -16 -555 1 -895 256
-932 699 l-6 67 239 -1 238 0 8 -43 c34 -202 214 -317 479 -307 137 5 242 43
319 116 56 54 82 149 61 226 -31 115 -141 174 -486 259 -320 80 -444 129 -571
225 -165 124 -228 263 -220 484 9 276 171 484 471 605 68 27 160 50 230 57 33
3 62 8 65 10 11 11 319 -7 380 -22z m2866 -207 l-1 -203 -355 -1 -355 -1 -3
-967 -2 -966 -245 0 -244 0 0 961 c0 529 -2 964 -5 966 -3 3 -163 5 -355 6
-248 0 -351 3 -352 11 -3 37 -4 373 -1 384 3 9 204 12 961 12 l957 0 0 -202z"/>
</g>
</svg>
